
        <svg xmlns="http://www.w3.org/2000/svg" xmlns:xlink="http://www.w3.org/1999/xlink" version="1.1" width="3300" 
        height="2764.5506628212033" viewBox="0 0 3300 2764.5506628212033">
			
			<g transform="scale(15) translate(10, 10)">
				<defs id="SvgjsDefs1021"></defs><g id="SvgjsG1022" featureKey="monogramFeature-0" transform="matrix(5.676732206290868,0,0,5.676732206290868,50.000007782270956,-46.10823111444502)" fill="#ffcd3c"><path d="M1.12 8.7 c0.16 0.92 1.16 5.26 2.06 8.56 c0.04 0.2 0.1 0.4 0.16 0.6 c0.26 -0.38 0.54 -0.76 0.84 -1.16 c2.6 -3.54 5.4 -7.24 5.52 -7.46 c0.14 -0.22 0.7 -0.16 0.42 0.22 c-0.28 0.36 -3.32 4.48 -5.44 7.36 l-1.16 1.6 c0.94 3.02 2.38 6.36 3.12 7.76 c0.82 1.56 2.14 3.14 2.5 3.52 c0.38 0.36 0.38 0.72 0.12 0.56 c-0.08 -0.06 -0.34 -0.2 -0.56 -0.44 c-0.48 -0.48 -1.12 -1.32 -1.8 -2.34 c-0.18 -0.24 -0.36 -0.54 -0.58 -0.9 c-0.92 -1.58 -2.1 -4.18 -3.18 -7.62 c-0.84 1.24 -1.16 1.84 -1.66 2.64 c-0.72 1.14 -1.14 2.24 -1.04 2.7 c0.1 0.4 -0.44 0.08 -0.44 -0.7 c0 -0.62 0.92 -2.34 2.96 -5.22 l-0.28 -1.02 c-1.46 -5.12 -1.88 -8 -1.84 -8.46 s0.2 -0.68 0.28 -0.2 z M17.293499999999998 23.38 c-4.82 2.34 -10.18 4.86 -11.22 4.86 c-0.9 0 -1.04 -0.62 -0.9 -1.54 c0.22 -1.54 2.08 -7.54 3.54 -13 c1.42 -5.26 2 -5.34 2.26 -5.38 c0.22 -0.02 0.34 -0.08 0.52 -0.18 c0.2 -0.12 0.08 0.4 -0.32 0.68 c-0.32 0.22 -0.54 0.6 -1.06 2.08 c-0.6 1.64 -1.02 2.74 -1.64 5.02 c-0.9 3.3 -2.46 9.02 -2.62 10.22 c-0.1 0.74 -0.1 1.46 0.3 1.46 s1.1 -0.14 4.64 -1.64 c3.56 -1.48 6.2 -2.82 6.62 -2.98 c0.1 -0.02 0.46 0.12 -0.12 0.4 z"></path></g><g id="SvgjsG1023" featureKey="jxYttZ-0" transform="matrix(1.2793570730958836,0,0,1.2793570730958836,-0.5369707518077341,138.47872358285574)" fill="#e2ebfb"><path d="M0.41992 20 l5.4297 -7.2656 l-5.2344 -6.6602 l2.8418 0 l3.7793 4.9805 l3.7695 -4.9805 l2.8418 0 l-5.2246 6.6602 l5.4297 7.2656 l-2.9688 0 l-3.8477 -5.4102 l-3.8477 5.4102 l-2.9688 0 z M20.7568484375 20 l0 -13.926 l2.334 0 l0 13.926 l-2.334 0 z M40.507999999999996 20 l-1.1035 -3.0957 l-6.084 0 l-1.0938 3.0957 l-2.4121 0 l5.127 -13.926 l2.8418 0 l5.127 13.926 l-2.4023 0 z M34.0332 14.9023 l4.668 0 l-2.334 -6.582 z M59.0773671875 6.074 l2.334 0 l0 13.926 l-2.6172 0 l-6.8359 -10.625 l0 10.625 l-2.3145 0 l0 -13.926 l2.5879 0 l6.8457 10.557 l0 -10.557 z M75.6543125 20.18555 c-3.9453 0 -6.9336 -2.7051 -6.9336 -7.1191 c0 -4.4434 3.0273 -7.1875 7.0313 -7.1875 c2.6172 0 4.8242 1.1523 6.0352 3.2617 l-2.0605 1.1035 c-0.82031 -1.5527 -2.2852 -2.2852 -3.9746 -2.2852 c-2.6465 0 -4.6777 1.8066 -4.6777 5.0586 c0 3.1836 1.9531 5.0977 4.7656 5.0977 c2.1289 0 3.8965 -1.1426 4.248 -3.5352 l-4.248 0 l0 -1.9238 l6.4844 0 l0 7.3438 l-1.8652 0 l0 -2.2656 c-0.91797 1.543 -2.5391 2.4512 -4.8047 2.4512 z M92.2900671875 17.9102 l4.5996 0 l0 2.0898 l-6.9336 0 l0 -13.926 l2.334 0 l0 11.836 z M109.726521875 20.18555 c-4.0039 0 -7.0313 -2.7441 -7.0313 -7.1582 c0 -4.4043 3.0273 -7.1484 7.0313 -7.1484 c3.9941 0 7.0215 2.7441 7.0215 7.1484 c0 4.4141 -3.0273 7.1582 -7.0215 7.1582 z M109.726521875 18.0176 c2.6367 0 4.6973 -1.8262 4.6973 -4.9902 c0 -3.1348 -2.0605 -4.9707 -4.6973 -4.9707 s-4.6973 1.8359 -4.6973 4.9707 c0 3.1641 2.0605 4.9902 4.6973 4.9902 z M133.5011953125 6.074 l2.334 0 l0 13.926 l-2.6172 0 l-6.8359 -10.625 l0 10.625 l-2.3145 0 l0 -13.926 l2.5879 0 l6.8457 10.557 l0 -10.557 z M150.078140625 20.18555 c-3.9453 0 -6.9336 -2.7051 -6.9336 -7.1191 c0 -4.4434 3.0273 -7.1875 7.0313 -7.1875 c2.6172 0 4.8242 1.1523 6.0352 3.2617 l-2.0605 1.1035 c-0.82031 -1.5527 -2.2852 -2.2852 -3.9746 -2.2852 c-2.6465 0 -4.6777 1.8066 -4.6777 5.0586 c0 3.1836 1.9531 5.0977 4.7656 5.0977 c2.1289 0 3.8965 -1.1426 4.248 -3.5352 l-4.248 0 l0 -1.9238 l6.4844 0 l0 7.3438 l-1.8652 0 l0 -2.2656 c-0.91797 1.543 -2.5391 2.4512 -4.8047 2.4512 z"></path></g>
			</g>
		</svg>
	